<svg aria-hidden="true" style="width:0;height:0;position:absolute;overflow:hidden" xmlns="http://www.w3.org/2000/svg"><defs><symbol id="icon-icecream" viewBox="0 0 15 32"><path fill="#f8ad48" style="fill:var(--color1,#f8ad48)" opacity=".68" d="m2.103 13.805 5.608 18.127 5.445-17.947z"/><path fill="#f8ad48" style="fill:var(--color1,#f8ad48)" d="m7.186 30.133.82.755-.262 1.043zM6.913 29.414l2.165-1.978.722-2.518-3.28 3.129zM5.806 25.746l5.311-5.107.847-2.661-6.582 6.402zM4.661 22.041l8.036-7.805L10.5 14.2l-6.33 6.186zM6.038 13.841l-2.919 3.165.361 1.295 4.428-4.28z"/><path fill="#f8ad48" style="fill:var(--color1,#f8ad48)" d="m5.022 23.12 4.165 3.884-.459 1.547-2.919-2.805zM2.923 16.43l7.347 7.013-.426 1.475-6.199-6.15zM11.45 19.631l-.459 1.475-7.708-7.337h2.263zM8.728 13.877l3.411 3.453.459-1.439-1.968-2.086z"/><path fill="#ee569e" style="fill:var(--color2,#ee569e)" d="M13.665 13.427a5.038 5.038 0 0 0 .267-1.622c0-3.075-2.761-5.568-6.168-5.568S1.596 8.73 1.596 11.805c0 .564.093 1.109.267 1.622-.65.246-1.107.827-1.107 1.503 0 .9.808 1.63 1.806 1.63.814 0 1.503-.487 1.728-1.156.225.669.913 1.156 1.729 1.156.841 0 1.546-.52 1.746-1.224.201.704.906 1.224 1.747 1.224.816 0 1.504-.487 1.729-1.157.224.67.912 1.157 1.727 1.157.997 0 1.806-.73 1.806-1.63 0-.677-.457-1.257-1.107-1.503z"/><path fill="#f181b2" style="fill:var(--color3,#f181b2)" d="M13.365 9.979a5.078 5.078 0 0 0 .095-1.641c-.323-3.101-3.316-5.561-6.687-5.494S.931 5.48 1.253 8.581c.059.569.209 1.117.434 1.631-.618.261-1.009.855-.938 1.538.094.908.971 1.628 1.958 1.608.807-.016 1.437-.521 1.588-1.2.293.67 1.025 1.148 1.831 1.132.833-.017 1.476-.555 1.601-1.268.272.706 1.024 1.216 1.856 1.2.808-.016 1.437-.521 1.59-1.2.292.671 1.024 1.148 1.83 1.132.987-.02 1.71-.771 1.616-1.679-.071-.683-.584-1.258-1.253-1.494z"/><path fill="#f6b9d3" style="fill:var(--color4,#f6b9d3)" d="M13.12 7.176c.195-.53.31-1.089.332-1.664.12-3.133-2.556-5.554-5.979-5.407S1.181 2.911 1.06 6.044a5.04 5.04 0 0 0 .205 1.641C.602 7.964.12 8.575.094 9.264c-.035.917.748 1.626 1.751 1.583.818-.035 1.528-.561 1.78-1.252.2.672.872 1.139 1.691 1.104.845-.036 1.574-.597 1.802-1.322.174.708.862 1.207 1.707 1.171.819-.035 1.529-.561 1.781-1.253.2.673.871 1.139 1.69 1.104 1.002-.043 1.842-.821 1.877-1.738.026-.69-.41-1.261-1.054-1.484z"/><path fill="#fefefe" style="fill:var(--color5,#fefefe)" opacity=".27" d="M5.672 1.604S2.39 2.269 1.998 7c0 0 .262.432.853-.144 0 0 1.509-4.388 3.346-4.388 0 0 .656-1.007-.525-.863z"/><path fill="#f181b2" style="fill:var(--color3,#f181b2)" d="M10.855 14.734c0 .298-.206.54-.459.54s-.459-.242-.459-.54c0-.298.206-.54.459-.54s.459.242.459.54zM3.769 11.82c0 .238-.162.432-.361.432s-.361-.193-.361-.432c0-.238.162-.432.361-.432s.361.193.361.432z"/><path fill="#f181b2" style="fill:var(--color3,#f181b2)" opacity=".4" d="M5.639 11.281c0 .179-.162.324-.361.324s-.361-.145-.361-.324c0-.179.162-.324.361-.324s.361.145.361.324z"/><path fill="#f181b2" style="fill:var(--color3,#f181b2)" d="m2.953 14.662-.015.143c-.017.157-.148.271-.291.252l-.586-.076c-.143-.018-.247-.162-.23-.319l.015-.143c.017-.157.148-.271.291-.252l.586.076c.143.018.247.162.23.319zM6.437 14.266H6.35a.417.417 0 0 1-.416-.416v-.175c0-.229.187-.416.416-.416h.087c.229 0 .416.187.416.416v.175a.417.417 0 0 1-.416.416z"/><path fill="#fefefe" style="fill:var(--color5,#fefefe)" opacity=".27" d="M7.712 2.545h-.706a.239.239 0 0 1-.238-.238v-.532c0-.131.107-.238.238-.238h.706c.131 0 .238.107.238.238v.532a.239.239 0 0 1-.238.238z"/></symbol><symbol id="icon-coffee-bean" viewBox="0 0 41 32"><path fill="#5e361c" style="fill:var(--color1,#5e361c)" d="M10.561 0c4.653 0 8.601 4.167 10.009 9.95-.354.311-.701.634-1.041.975-3.093 3.093-4.993 6.817-5.558 10.33-.397 2.449-.145 4.801.786 6.787a8.364 8.364 0 0 1-2.872 1.087c1.956-7.722 1.011-11.562-.453-15.118-1.418-3.443-3.341-7.134-1.17-14.007l.297-.003zm27.628 8.905c4.124 4.124 2.838 12.097-2.872 17.808-5.271 5.271-12.468 6.771-16.786 3.731 6.843-4.078 8.889-7.461 10.369-11.01 1.431-3.437 2.683-7.409 9.077-10.729.069.063.142.132.211.202zM17.837 29.892a7.909 7.909 0 0 1-.327-.307c-4.124-4.124-2.838-12.097 2.872-17.808 5.38-5.38 12.765-6.83 17.051-3.536-6.857 3.463-8.71 6.371-10.217 9.989-1.414 3.39-2.944 7.736-9.378 11.661zm-6.83-.661a6.64 6.64 0 0 1-.446.013C4.729 29.244 0 22.698 0 14.622 0 7.015 4.197.763 9.56.066c-2.402 7.296-1.655 10.663-.165 14.285 1.398 3.4 3.387 7.554 1.613 14.88z"/></symbol><symbol id="icon-milkshake" viewBox="0 0 32 32"><path fill="#b3e8e2" style="fill:var(--color1,#b3e8e2)" d="M15.289 29.325v1.254h1.421v-1.254a3.808 3.808 0 0 1-1.422 0z"/><path fill="#89634a" style="fill:var(--color2,#89634a)" d="M20.469 9.583h-.036a.71.71 0 0 1-.577-1.126.997.997 0 0 0-.809-1.576H11.53a.92.92 0 0 0-.139.011.989.989 0 0 0-.104.802h7.19a.711.711 0 0 1 0 1.422h-7.658a.995.995 0 0 0-.996.996c0 .549.447.996.996.996h10.36a.92.92 0 0 0 .139-.011.997.997 0 0 0-.85-1.513z"/><path fill="#b3e8e2" style="fill:var(--color1,#b3e8e2)" d="M20.011 20.803c.715-3.061 1.034-6.15 1.151-7.534H9.948c.155 1.583.478 4.209 1.087 6.809.554 2.367 1.231 4.242 2.011 5.572.883 1.506 1.878 2.27 2.956 2.27.367 0 .724-.089 1.07-.265a6.88 6.88 0 0 0 .929-1.27c.781-1.333 1.457-3.211 2.011-5.582zm-5.869 1.204a.71.71 0 0 1-.885-.476 32.72 32.72 0 0 1-.666-2.634 49.785 49.785 0 0 1-.643-3.788.71.71 0 0 1 1.409-.187c.173 1.307.383 2.545.625 3.68.195.917.409 1.764.636 2.519a.712.712 0 0 1-.475.886z"/><path style="fill:var(--color3,#000)" d="M23.312 11.249a2.42 2.42 0 0 0-1.184-3.361 2.42 2.42 0 0 0-2.37-2.896h-2.815l.953-3.313 3.736 1.582a.711.711 0 0 0 .555-1.309L17.712.057a.71.71 0 0 0-.96.458l-1.288 4.477H12.24a2.42 2.42 0 0 0-2.37 2.896 2.421 2.421 0 0 0-1.184 3.361.712.712 0 0 0-.285.61c.01.174.257 4.313 1.242 8.527 1.015 4.343 2.43 7.121 4.222 8.302v1.89h-2.533a.711.711 0 0 0 0 1.422h9.33a.711.711 0 0 0 0-1.422h-2.533v-1.89c1.792-1.181 3.207-3.959 4.222-8.302.985-4.215 1.232-8.353 1.242-8.527a.71.71 0 0 0-.284-.61zm-6.601 18.076v1.254H15.29v-1.304a3.808 3.808 0 0 0 1.422 0v.05zm4.259-9.262c-.554 2.371-1.231 4.249-2.011 5.582-.584.997-1.216 1.669-1.889 2.011a2.335 2.335 0 0 1-1.07.265c-1.078 0-2.072-.764-2.956-2.27-.78-1.33-1.457-3.205-2.011-5.572-.609-2.6-.931-5.226-1.087-6.809-.028-.282-.05-.531-.068-.741H22.12c-.117 1.384-.436 4.473-1.151 7.534zm.349-8.967a1.07 1.07 0 0 1-.139.011H10.82a.997.997 0 0 1-.85-1.513.995.995 0 0 1 .85-.479h7.658a.711.711 0 0 0 0-1.422h-7.19a.991.991 0 0 1 .104-.802.995.995 0 0 1 .85-.479H19.759a.997.997 0 0 1 .809 1.576.711.711 0 0 0 .577 1.126h.036c.549 0 .996.447.996.996a.997.997 0 0 1-.857.985z"/><path style="fill:var(--color3,#000)" d="M13.981 18.602a48.931 48.931 0 0 1-.625-3.68.71.71 0 0 0-1.409.187c.178 1.343.395 2.617.643 3.788.203.955.427 1.842.666 2.634a.712.712 0 0 0 .885.476.71.71 0 0 0 .475-.886 31.356 31.356 0 0 1-.636-2.519z"/></symbol></defs></svg>