<svg aria-hidden="true" style="position: absolute; width: 0; height: 0; overflow: hidden;" version="1.1" xmlns="http://www.w3.org/2000/svg" xmlns:xlink="http://www.w3.org/1999/xlink">
<defs>
<symbol id="icon-icon-howitsmade-heart" viewBox="0 0 28 32">
<path fill="#ffa5ba" style="fill: var(--color1, #ffa5ba); stroke: var(--color1, #ffa5ba)" stroke="#ffa5ba" stroke-linejoin="miter" stroke-linecap="butt" stroke-miterlimit="4" stroke-width="0.3077" d="M6.507 0.682c-2.81 0.589-4.991 2.897-5.702 6.037-0.261 1.097-0.249 3.209 0.012 4.409 0.581 2.666 1.873 5.032 3.912 7.087 1.826 1.847 3.426 2.966 5.963 4.132l1.328 0.623v8.414h1.423v-7.953l0.356 0.104c0.202 0.058 0.51 0.058 0.711 0l0.356-0.104v7.953h1.423v-8.426l1.268-0.577c2.454-1.131 4.232-2.355 5.963-4.109 2.762-2.805 4.173-5.99 4.173-9.453 0.012-3.797-1.98-6.879-5.109-7.93-0.664-0.231-1.008-0.265-2.264-0.254-1.316 0.012-1.612 0.058-2.608 0.369-1.174 0.381-2.324 0.981-3.082 1.604l-0.439 0.369-0.64-0.473c-1.648-1.212-3.331-1.801-5.311-1.881-0.688-0.023-1.47 0-1.731 0.058zM9.21 2.113c0.498 0.092 1.174 0.289 1.529 0.427 0.759 0.312 2.027 1.108 2.525 1.581 0.771 0.727 0.984 0.716 1.861-0.069 1.375-1.247 3.592-2.101 5.418-2.101 2.478 0 4.742 1.939 5.465 4.675 0.13 0.485 0.249 1.27 0.261 1.743 0.047 1.039 0.012 1.073-1.6 1.685-1.304 0.496-2.395 0.739-4.268 0.946-1.197 0.139-1.446 0.208-1.814 0.473-0.759 0.566-0.877 0.981-0.877 3.336 0 1.766-0.024 2.101-0.202 2.285-0.249 0.277-0.688 0.265-0.984-0.023-0.225-0.219-0.237-0.381-0.237-2.712 0-2.585-0.071-3.024-0.557-3.543-0.107-0.115-0.948-0.566-1.861-1.016-1.031-0.485-2.063-1.085-2.679-1.558-2.976-2.228-4.292-2.863-6.734-3.243-0.699-0.115-1.292-0.219-1.316-0.231-0.107-0.081 0.533-0.9 1.114-1.408 1.375-1.224 2.94-1.616 4.955-1.247zM5.286 6.569c1.209 0.3 2.573 0.981 3.817 1.904 0.522 0.381 1.186 0.866 1.482 1.085 0.794 0.589 2.11 1.327 3.106 1.743 0.486 0.208 0.948 0.45 1.031 0.554 0.107 0.127 0.142 0.854 0.142 2.666 0 2.181 0.036 2.551 0.225 2.955 0.391 0.831 1.020 1.212 1.98 1.212 0.616 0 1.043-0.185 1.494-0.658 0.51-0.519 0.569-0.843 0.569-3.047 0-2.505-0.024-2.459 1.375-2.574 1.423-0.127 3.189-0.508 4.363-0.935 0.593-0.219 1.103-0.369 1.126-0.335 0.13 0.127-0.759 2.389-1.28 3.266-0.83 1.42-1.482 2.228-2.739 3.405-1.826 1.708-4.339 3.174-6.9 4.051l-0.925 0.323-0.913-0.323c-2.739-0.923-5.157-2.389-7.101-4.271-2.466-2.366-3.758-4.871-4.078-7.837-0.119-1.108 0.059-3.013 0.332-3.463 0.095-0.162 1.79 0.012 2.893 0.277z"></path>
</symbol>
</defs>
</svg>
