<svg aria-hidden="true" style="position: absolute; width: 0; height: 0; overflow: hidden;" version="1.1" xmlns="http://www.w3.org/2000/svg" xmlns:xlink="http://www.w3.org/1999/xlink">
<defs>
<symbol id="icon-icecream" viewBox="0 0 15 32">
<path fill="#f8ad48" style="fill: var(--color1, #f8ad48)" opacity="0.68" d="M2.103 13.805l5.608 18.127 5.445-17.947z"></path>
<path fill="#f8ad48" style="fill: var(--color1, #f8ad48)" d="M7.186 30.133l0.82 0.755-0.262 1.043z"></path>
<path fill="#f8ad48" style="fill: var(--color1, #f8ad48)" d="M6.913 29.414l2.165-1.978 0.722-2.518-3.28 3.129z"></path>
<path fill="#f8ad48" style="fill: var(--color1, #f8ad48)" d="M5.806 25.746l5.311-5.107 0.847-2.661-6.582 6.402z"></path>
<path fill="#f8ad48" style="fill: var(--color1, #f8ad48)" d="M4.661 22.041l8.036-7.805-2.197-0.036-6.33 6.186z"></path>
<path fill="#f8ad48" style="fill: var(--color1, #f8ad48)" d="M6.038 13.841l-2.919 3.165 0.361 1.295 4.428-4.28z"></path>
<path fill="#f8ad48" style="fill: var(--color1, #f8ad48)" d="M5.022 23.12l4.165 3.884-0.459 1.547-2.919-2.805z"></path>
<path fill="#f8ad48" style="fill: var(--color1, #f8ad48)" d="M2.923 16.43l7.347 7.013-0.426 1.475-6.199-6.15z"></path>
<path fill="#f8ad48" style="fill: var(--color1, #f8ad48)" d="M11.45 19.631l-0.459 1.475-7.708-7.337h2.263z"></path>
<path fill="#f8ad48" style="fill: var(--color1, #f8ad48)" d="M8.728 13.877l3.411 3.453 0.459-1.439-1.968-2.086z"></path>
<path fill="#ee569e" style="fill: var(--color2, #ee569e)" d="M13.665 13.427c0.174-0.513 0.267-1.058 0.267-1.622 0-3.075-2.761-5.568-6.168-5.568s-6.168 2.493-6.168 5.568c0 0.564 0.093 1.109 0.267 1.622-0.65 0.246-1.107 0.827-1.107 1.503 0 0.9 0.808 1.63 1.806 1.63 0.814 0 1.503-0.487 1.728-1.156 0.225 0.669 0.913 1.156 1.729 1.156 0.841 0 1.546-0.52 1.746-1.224 0.201 0.704 0.906 1.224 1.747 1.224 0.816 0 1.504-0.487 1.729-1.157 0.224 0.67 0.912 1.157 1.727 1.157 0.997 0 1.806-0.73 1.806-1.63 0-0.677-0.457-1.257-1.107-1.503z"></path>
<path fill="#f181b2" style="fill: var(--color3, #f181b2)" d="M13.365 9.979c0.118-0.521 0.153-1.072 0.095-1.641-0.323-3.101-3.316-5.561-6.687-5.494s-5.842 2.636-5.52 5.737c0.059 0.569 0.209 1.117 0.434 1.631-0.618 0.261-1.009 0.855-0.938 1.538 0.094 0.908 0.971 1.628 1.958 1.608 0.807-0.016 1.437-0.521 1.588-1.2 0.293 0.67 1.025 1.148 1.831 1.132 0.833-0.017 1.476-0.555 1.601-1.268 0.272 0.706 1.024 1.216 1.856 1.2 0.808-0.016 1.437-0.521 1.59-1.2 0.292 0.671 1.024 1.148 1.83 1.132 0.987-0.020 1.71-0.771 1.616-1.679-0.071-0.683-0.584-1.258-1.253-1.494z"></path>
<path fill="#f6b9d3" style="fill: var(--color4, #f6b9d3)" d="M13.12 7.176c0.195-0.53 0.31-1.089 0.332-1.664 0.12-3.133-2.556-5.554-5.979-5.407s-6.292 2.806-6.413 5.939c-0.022 0.575 0.051 1.126 0.205 1.641-0.663 0.279-1.145 0.89-1.171 1.579-0.035 0.917 0.748 1.626 1.751 1.583 0.818-0.035 1.528-0.561 1.78-1.252 0.2 0.672 0.872 1.139 1.691 1.104 0.845-0.036 1.574-0.597 1.802-1.322 0.174 0.708 0.862 1.207 1.707 1.171 0.819-0.035 1.529-0.561 1.781-1.253 0.2 0.673 0.871 1.139 1.69 1.104 1.002-0.043 1.842-0.821 1.877-1.738 0.026-0.69-0.41-1.261-1.054-1.484z"></path>
<path fill="#fefefe" style="fill: var(--color5, #fefefe)" opacity="0.27" d="M5.672 1.604c0 0-3.282 0.665-3.674 5.396 0 0 0.262 0.432 0.853-0.144 0 0 1.509-4.388 3.346-4.388 0 0 0.656-1.007-0.525-0.863z"></path>
<path fill="#f181b2" style="fill: var(--color3, #f181b2)" d="M10.855 14.734c0 0.298-0.206 0.54-0.459 0.54s-0.459-0.242-0.459-0.54c0-0.298 0.206-0.54 0.459-0.54s0.459 0.242 0.459 0.54z"></path>
<path fill="#f181b2" style="fill: var(--color3, #f181b2)" d="M3.769 11.82c0 0.238-0.162 0.432-0.361 0.432s-0.361-0.193-0.361-0.432c0-0.238 0.162-0.432 0.361-0.432s0.361 0.193 0.361 0.432z"></path>
<path fill="#f181b2" style="fill: var(--color3, #f181b2)" opacity="0.4" d="M5.639 11.281c0 0.179-0.162 0.324-0.361 0.324s-0.361-0.145-0.361-0.324c0-0.179 0.162-0.324 0.361-0.324s0.361 0.145 0.361 0.324z"></path>
<path fill="#f181b2" style="fill: var(--color3, #f181b2)" d="M2.953 14.662l-0.015 0.143c-0.017 0.157-0.148 0.271-0.291 0.252l-0.586-0.076c-0.143-0.018-0.247-0.162-0.23-0.319l0.015-0.143c0.017-0.157 0.148-0.271 0.291-0.252l0.586 0.076c0.143 0.018 0.247 0.162 0.23 0.319z"></path>
<path fill="#f181b2" style="fill: var(--color3, #f181b2)" d="M6.437 14.266h-0.087c-0.229 0-0.416-0.187-0.416-0.416v-0.175c0-0.229 0.187-0.416 0.416-0.416h0.087c0.229 0 0.416 0.187 0.416 0.416v0.175c0 0.229-0.187 0.416-0.416 0.416z"></path>
<path fill="#fefefe" style="fill: var(--color5, #fefefe)" opacity="0.27" d="M7.712 2.545h-0.706c-0.131 0-0.238-0.107-0.238-0.238v-0.532c0-0.131 0.107-0.238 0.238-0.238h0.706c0.131 0 0.238 0.107 0.238 0.238v0.532c0 0.131-0.107 0.238-0.238 0.238z"></path>
</symbol>
<symbol id="icon-coffee-bean" viewBox="0 0 41 32">
<path fill="#5e361c" style="fill: var(--color1, #5e361c)" d="M10.561 0c4.653 0 8.601 4.167 10.009 9.95-0.354 0.311-0.701 0.634-1.041 0.975-3.093 3.093-4.993 6.817-5.558 10.33-0.397 2.449-0.145 4.801 0.786 6.787-0.899 0.539-1.864 0.912-2.872 1.087 1.956-7.722 1.011-11.562-0.453-15.118-1.418-3.443-3.341-7.134-1.17-14.007 0.096 0 0.198-0.003 0.297-0.003v0zM38.189 8.905c4.124 4.124 2.838 12.097-2.872 17.808-5.271 5.271-12.468 6.771-16.786 3.731 6.843-4.078 8.889-7.461 10.369-11.010 1.431-3.437 2.683-7.409 9.077-10.729 0.069 0.063 0.142 0.132 0.211 0.202v0zM17.837 29.892c-0.112-0.099-0.221-0.202-0.327-0.307-4.124-4.124-2.838-12.097 2.872-17.808 5.38-5.38 12.765-6.83 17.051-3.536-6.857 3.463-8.71 6.371-10.217 9.989-1.414 3.39-2.944 7.736-9.378 11.661v0zM11.007 29.231c-0.149 0.010-0.297 0.013-0.446 0.013-5.832 0-10.561-6.546-10.561-14.622 0-7.607 4.197-13.859 9.56-14.556-2.402 7.296-1.655 10.663-0.165 14.285 1.398 3.4 3.387 7.554 1.613 14.88v0z"></path>
</symbol>
<symbol id="icon-milkshake" viewBox="0 0 32 32">
<path fill="#b3e8e2" style="fill: var(--color1, #b3e8e2)" d="M15.289 29.325v1.254h1.421v-1.254c-0.232 0.044-0.469 0.067-0.711 0.067s-0.479-0.023-0.711-0.067z"></path>
<path fill="#89634a" style="fill: var(--color2, #89634a)" d="M20.469 9.583h-0.036c-0.267 0-0.511-0.149-0.633-0.387s-0.1-0.523 0.056-0.739c0.122-0.17 0.187-0.371 0.187-0.58 0-0.549-0.447-0.996-0.996-0.996h-3.753c-0.002 0-0.003 0-0.005 0s-0.002-0-0.003-0h-3.756c-0.047 0-0.093 0.004-0.139 0.011-0.092 0.151-0.146 0.327-0.146 0.517 0 0.098 0.015 0.194 0.042 0.285h7.19c0.392 0 0.711 0.318 0.711 0.711s-0.318 0.711-0.711 0.711h-7.658c-0.36 0-0.675 0.192-0.85 0.479-0.092 0.151-0.146 0.327-0.146 0.517 0 0.549 0.447 0.996 0.996 0.996h10.36c0.047 0 0.093-0.004 0.139-0.011 0.092-0.151 0.146-0.327 0.146-0.517 0-0.549-0.447-0.996-0.996-0.996z"></path>
<path fill="#b3e8e2" style="fill: var(--color1, #b3e8e2)" d="M20.011 20.803c0.715-3.061 1.034-6.15 1.151-7.534h-11.214c0.155 1.583 0.478 4.209 1.087 6.809 0.554 2.367 1.231 4.242 2.011 5.572 0.883 1.506 1.878 2.27 2.956 2.27 0.367 0 0.724-0.089 1.070-0.265 0.322-0.339 0.632-0.762 0.929-1.27 0.781-1.333 1.457-3.211 2.011-5.582zM14.142 22.007c-0.068 0.021-0.137 0.030-0.205 0.030-0.305 0-0.587-0.198-0.68-0.506-0.239-0.792-0.463-1.678-0.666-2.634-0.249-1.171-0.465-2.445-0.643-3.788-0.052-0.389 0.222-0.746 0.611-0.798s0.746 0.222 0.798 0.611c0.173 1.307 0.383 2.545 0.625 3.68 0.195 0.917 0.409 1.764 0.636 2.519 0.113 0.376-0.1 0.772-0.475 0.886z"></path>
<path fill="#000" style="fill: var(--color3, #000)" d="M23.312 11.249c0.182-0.339 0.285-0.727 0.285-1.138 0-0.996-0.606-1.854-1.469-2.223 0.031-0.156 0.047-0.317 0.047-0.479 0-1.333-1.084-2.417-2.417-2.417h-2.815l0.953-3.313 3.736 1.582c0.362 0.153 0.779-0.016 0.932-0.377s-0.016-0.779-0.377-0.932l-4.475-1.895c-0.187-0.079-0.399-0.075-0.583 0.013s-0.321 0.25-0.377 0.445l-1.288 4.477h-3.224c-1.333 0-2.417 1.084-2.417 2.417 0 0.162 0.016 0.323 0.047 0.479-0.863 0.37-1.469 1.227-1.469 2.223 0 0.411 0.103 0.799 0.285 1.138-0.032 0.024-0.063 0.051-0.092 0.081-0.134 0.142-0.204 0.333-0.193 0.529 0.010 0.174 0.257 4.313 1.242 8.527 1.015 4.343 2.43 7.121 4.222 8.302v1.89h-2.533c-0.392 0-0.711 0.318-0.711 0.711s0.318 0.711 0.711 0.711h9.33c0.392 0 0.711-0.318 0.711-0.711s-0.318-0.711-0.711-0.711h-2.533v-1.89c1.792-1.181 3.207-3.959 4.222-8.302 0.985-4.215 1.232-8.353 1.242-8.527 0.011-0.195-0.058-0.387-0.193-0.529-0.028-0.030-0.059-0.056-0.091-0.081zM16.711 29.325v1.254h-1.421v-1.304c0.232 0.044 0.469 0.067 0.711 0.067s0.479-0.023 0.711-0.067v0.050zM20.97 20.063c-0.554 2.371-1.231 4.249-2.011 5.582-0.584 0.997-1.216 1.669-1.889 2.011-0.346 0.176-0.703 0.265-1.070 0.265-1.078 0-2.072-0.764-2.956-2.27-0.78-1.33-1.457-3.205-2.011-5.572-0.609-2.6-0.931-5.226-1.087-6.809-0.028-0.282-0.050-0.531-0.068-0.741h12.242c-0.117 1.384-0.436 4.473-1.151 7.534zM21.319 11.096c-0.046 0.006-0.092 0.011-0.139 0.011h-10.36c-0.549 0-0.996-0.447-0.996-0.996 0-0.189 0.054-0.366 0.146-0.517 0.175-0.287 0.49-0.479 0.85-0.479h7.658c0.392 0 0.711-0.318 0.711-0.711s-0.318-0.711-0.711-0.711h-7.19c-0.027-0.092-0.042-0.187-0.042-0.285 0-0.189 0.054-0.366 0.146-0.517 0.175-0.287 0.49-0.479 0.85-0.479h3.756c0.001 0 0.002 0 0.003 0s0.003-0 0.005-0h3.753c0.549 0 0.996 0.447 0.996 0.996 0 0.21-0.065 0.41-0.187 0.58-0.156 0.216-0.177 0.502-0.056 0.739s0.366 0.387 0.633 0.387h0.036c0.549 0 0.996 0.447 0.996 0.996-0 0.502-0.374 0.917-0.857 0.985z"></path>
<path fill="#000" style="fill: var(--color3, #000)" d="M13.981 18.602c-0.241-1.135-0.451-2.373-0.625-3.68-0.052-0.389-0.409-0.663-0.798-0.611s-0.663 0.409-0.611 0.798c0.178 1.343 0.395 2.617 0.643 3.788 0.203 0.955 0.427 1.842 0.666 2.634 0.093 0.307 0.375 0.506 0.68 0.506 0.068 0 0.137-0.010 0.205-0.030 0.376-0.113 0.589-0.51 0.475-0.886-0.227-0.755-0.442-1.602-0.636-2.519z"></path>
</symbol>
</defs>
</svg>